<svg id="icon-curtain" xmlns="http://www.w3.org/2000/svg" xmlns:xlink="http://www.w3.org/1999/xlink" width="110.137" height="110" viewBox="0 0 110.137 110">
  <defs>
    <clipPath id="clip-path">
      <rect id="Rectangle_57" data-name="Rectangle 57" width="110.137" height="110" fill="#607684"/>
    </clipPath>
  </defs>
  <g id="Group_40" data-name="Group 40" clip-path="url(#clip-path)">
    <path id="Path_251" data-name="Path 251" d="M110.082,4.994h0a5.788,5.788,0,0,0-11.291-.823H11.344A5.788,5.788,0,1,0,4.366,11.4v43a1.73,1.73,0,0,0,.09.529,1.618,1.618,0,0,0-.09.51v52.894a1.664,1.664,0,0,0,.609,1.312,1.618,1.618,0,0,0,2.051-.028,6.319,6.319,0,0,1,8.159,0,1.616,1.616,0,0,0,1.724.229,1.545,1.545,0,0,0,.354-.227l.006,0a6.319,6.319,0,0,1,8.159,0l0,0a1.568,1.568,0,0,0,.358.231,1.617,1.617,0,0,0,1.724-.229,6.319,6.319,0,0,1,8.159,0,1.619,1.619,0,0,0,1.726.229,1.6,1.6,0,0,0,.357-.231l0,0a6.319,6.319,0,0,1,8.159,0,1.618,1.618,0,0,0,1.986.077,1.676,1.676,0,0,0,.675-1.374V81.784H61.756v26.551a1.661,1.661,0,0,0,.608,1.312,1.619,1.619,0,0,0,2.052-.028c2.364-1.991,8.827.38,9.2.38a1.591,1.591,0,0,0,1.04-.382l0,0a6.321,6.321,0,0,1,8.16,0,1.612,1.612,0,0,0,2.066.012l.018-.012a6.319,6.319,0,0,1,8.159,0,1.621,1.621,0,0,0,1.724.229,1.642,1.642,0,0,0,.358-.231h0a6.319,6.319,0,0,1,8.159,0,1.618,1.618,0,0,0,2.66-1.237l.027-97.046a5.794,5.794,0,0,0,4.088-6.342M3.256,6.121a2.553,2.553,0,1,1,2.2,2.2,2.556,2.556,0,0,1-2.2-2.2M14.61,105.555a9.55,9.55,0,0,0-7.009,0V55.509a1.7,1.7,0,0,0-.09-.529,1.592,1.592,0,0,0,.09-.51V17.018H14.61Zm0-91.772H7.6v-2.5a5.812,5.812,0,0,0,3.743-3.877H14.61Zm10.244,91.772a9.55,9.55,0,0,0-7.009,0V17.018h7.009Zm0-91.772H17.845V7.406h7.009ZM35.1,105.555a9.55,9.55,0,0,0-7.009,0V17.018H35.1Zm0-91.772H28.089V7.406H35.1Zm10.244,91.772a9.548,9.548,0,0,0-7.008,0V17.018h7.008Zm0-91.772H38.332V7.406h7.009ZM61.755,78.549H48.577V7.406H61.755ZM72,105.555a9.548,9.548,0,0,0-7.008,0V17.018H72Zm.007-91.772H64.991V7.406h7.015Zm3.236-6.377h7.015v6.377H75.242Zm-.007,98.149V17.018h7.008V105.56a9.543,9.543,0,0,0-7.008,0m10.244,0V17.018h7.008v88.537a9.548,9.548,0,0,0-7.008,0m7.029-91.772H85.492V7.406h7.015Zm10.224,91.772a9.55,9.55,0,0,0-7.009,0V17.018h7.009ZM95.743,13.783V7.406h3.049a5.809,5.809,0,0,0,3.966,3.946v2.431ZM106.88,6.121a2.553,2.553,0,1,1-2.865-2.864,2.561,2.561,0,0,1,2.865,2.864" transform="translate(0 0)" fill="#607684"/>
  </g>
</svg>
