<svg xmlns="http://www.w3.org/2000/svg" width="70" height="70" viewBox="0 0 70 70">
  <g id="icon-phone-square" transform="translate(-516 -2973)">
    <rect id="Rectangle_7" data-name="Rectangle 7" width="70" height="70" transform="translate(516 2973)" fill="#5ab1ec"/>
    <path id="call" d="M36.507,28.889q-2.289-2.289-4.573-4.573a2.646,2.646,0,0,0-4.069,0q-1.427,1.427-2.859,2.859a.589.589,0,0,1-.763.127c-.574-.381-1.271-.636-1.846-1.017A28.757,28.757,0,0,1,15.282,19.8a17.2,17.2,0,0,1-2.543-4.13.589.589,0,0,1,.127-.763c1.017-.89,1.907-1.842,2.859-2.67a2.692,2.692,0,0,0,0-4.192C14.9,7.218,14.2,6.52,13.441,5.758c-.828-.824-1.591-1.587-2.354-2.35a2.729,2.729,0,0,0-4.065,0Q5.589,4.835,4.159,6.266A5.088,5.088,0,0,0,2.7,9.445a13.573,13.573,0,0,0,1.017,5.717A33.914,33.914,0,0,0,9.881,25.457a37.663,37.663,0,0,0,12.645,9.917,19.347,19.347,0,0,0,6.927,2.034A5.3,5.3,0,0,0,33.9,35.69c.824-.89,1.78-1.714,2.6-2.6A2.784,2.784,0,0,0,36.507,28.889Z" transform="translate(531.323 2988.5)" fill="#fff"/>
  </g>
</svg>
