<svg xmlns="http://www.w3.org/2000/svg" xmlns:xlink="http://www.w3.org/1999/xlink" width="160" height="160" viewBox="0 0 160 160">
  <defs>
    <clipPath id="clip-path">
      <rect id="Rectangle_59" data-name="Rectangle 59" width="80" height="80" fill="#fff"/>
    </clipPath>
  </defs>
  <g id="icon-installation2" transform="translate(35 40)">
    <circle id="Ellipse_9" data-name="Ellipse 9" cx="80" cy="80" r="80" transform="translate(-35 -40)" fill="#5ab1ed"/>
    <g id="Group_43" data-name="Group 43" transform="translate(5)" clip-path="url(#clip-path)">
      <path id="Path_268" data-name="Path 268" d="M77.333,0H2.667A2.67,2.67,0,0,0,0,2.667V8a2.67,2.67,0,0,0,2.667,2.667h.817L1.4,16.911a1.332,1.332,0,0,0,1.264,1.755h.817L1.4,24.911a1.332,1.332,0,0,0,1.264,1.755h.817L1.4,32.911a1.332,1.332,0,0,0,1.264,1.755h.817L1.4,40.911a1.332,1.332,0,0,0,1.264,1.755h.817L1.4,48.911a1.332,1.332,0,0,0,1.264,1.755h4v28A1.333,1.333,0,0,0,8,80H72a1.333,1.333,0,0,0,1.333-1.332h0v-28h4A1.331,1.331,0,0,0,78.6,48.911l-2.081-6.245h.817A1.331,1.331,0,0,0,78.6,40.911l-2.081-6.245h.817A1.331,1.331,0,0,0,78.6,32.911l-2.081-6.245h.817A1.331,1.331,0,0,0,78.6,24.911l-2.081-6.245h.817A1.331,1.331,0,0,0,78.6,16.911l-2.081-6.245h.817A2.67,2.67,0,0,0,80,8V2.667A2.67,2.67,0,0,0,77.333,0M10.667,10.667V16H4.517l1.777-5.333Zm2.667,32H66.667V48H13.333Zm4,26.667V50.667H54.667v8.246a4,4,0,1,0,2.667,0V50.667h5.333V69.333Zm40-6.667A1.333,1.333,0,1,1,56,61.333a1.333,1.333,0,0,1,1.333,1.333m-44-28H66.667V40H13.333Zm0-8H66.667V32H13.333Zm0-8H66.667V24H13.333Zm0-8H66.667V16H13.333Zm-2.667,8V24H4.517l1.777-5.333Zm0,8V32H4.517l1.777-5.333Zm0,8V40H4.517l1.777-5.333Zm-4.373,8h4.373V48H4.517Zm8.373,26.667H9.333V50.667h5.333ZM9.333,72H70.667v5.333H9.333Zm61.333-2.667H65.333V50.667h5.333ZM75.483,48h-6.15V42.667h4.373Zm0-8h-6.15V34.667h4.373Zm0-8h-6.15V26.667h4.373Zm0-8h-6.15V18.667h4.373Zm0-8h-6.15V10.667h4.373ZM2.667,8V2.667H77.333l0,5.333Z" fill="#fff"/>
    </g>
  </g>
</svg>
