<svg xmlns="http://www.w3.org/2000/svg" xmlns:xlink="http://www.w3.org/1999/xlink" width="160" height="160" viewBox="0 0 160 160">
  <defs>
    <clipPath id="clip-path">
      <rect id="Rectangle_57" data-name="Rectangle 57" width="80.099" height="80" fill="#fff"/>
    </clipPath>
  </defs>
  <g id="icon-curtain2" transform="translate(40 40)">
    <circle id="Ellipse_8" data-name="Ellipse 8" cx="80" cy="80" r="80" transform="translate(-40 -40)" fill="#5ab1ed"/>
    <g id="Group_40" data-name="Group 40" clip-path="url(#clip-path)">
      <path id="Path_251" data-name="Path 251" d="M80.06,3.632h0a4.209,4.209,0,0,0-8.211-.6H8.25A4.209,4.209,0,1,0,3.175,8.29V39.566a1.259,1.259,0,0,0,.065.385,1.176,1.176,0,0,0-.065.371V78.79a1.21,1.21,0,0,0,.443.954,1.177,1.177,0,0,0,1.492-.021,4.6,4.6,0,0,1,5.934,0,1.175,1.175,0,0,0,1.254.167,1.124,1.124,0,0,0,.257-.165h0a4.6,4.6,0,0,1,5.934,0h0a1.14,1.14,0,0,0,.261.168,1.176,1.176,0,0,0,1.254-.167,4.6,4.6,0,0,1,5.934,0,1.178,1.178,0,0,0,1.255.167,1.161,1.161,0,0,0,.259-.168h0a4.6,4.6,0,0,1,5.934,0,1.177,1.177,0,0,0,1.444.056,1.219,1.219,0,0,0,.491-1v-19.3h9.585v19.31a1.208,1.208,0,0,0,.442.954,1.178,1.178,0,0,0,1.492-.02c1.719-1.448,6.42.277,6.693.277a1.157,1.157,0,0,0,.756-.278h0a4.6,4.6,0,0,1,5.935,0,1.173,1.173,0,0,0,1.5.009l.013-.009a4.6,4.6,0,0,1,5.934,0,1.179,1.179,0,0,0,1.254.167,1.194,1.194,0,0,0,.261-.168h0a4.6,4.6,0,0,1,5.934,0,1.177,1.177,0,0,0,1.935-.9l.02-70.579A4.214,4.214,0,0,0,80.06,3.632M2.368,4.451a1.857,1.857,0,1,1,1.6,1.6,1.859,1.859,0,0,1-1.6-1.6m8.257,72.316a6.946,6.946,0,0,0-5.1,0V40.37a1.239,1.239,0,0,0-.065-.385,1.158,1.158,0,0,0,.065-.371V12.377h5.1Zm0-66.743h-5.1V8.206A4.227,4.227,0,0,0,8.25,5.386h2.375Zm7.45,66.743a6.946,6.946,0,0,0-5.1,0V12.377h5.1Zm0-66.743h-5.1V5.386h5.1Zm7.45,66.743a6.946,6.946,0,0,0-5.1,0V12.377h5.1Zm0-66.743h-5.1V5.386h5.1Zm7.45,66.743a6.944,6.944,0,0,0-5.1,0V12.377h5.1Zm0-66.743h-5.1V5.386h5.1Zm11.937,47.1H35.328V5.386h9.584Zm7.45,19.641a6.944,6.944,0,0,0-5.1,0V12.377h5.1Zm.005-66.743h-5.1V5.386h5.1Zm2.353-4.638h5.1v4.638h-5.1Zm-.005,71.381V12.377h5.1V76.771a6.941,6.941,0,0,0-5.1,0m7.45,0V41.731h0V12.377h5.1V76.767a6.944,6.944,0,0,0-5.1,0m5.112-66.743h-5.1V5.386h5.1Zm7.435,66.743a6.946,6.946,0,0,0-5.1,0V12.377h5.1ZM69.631,10.024V5.386h2.217a4.225,4.225,0,0,0,2.885,2.87v1.768Zm8.1-5.573a1.857,1.857,0,1,1-2.083-2.083A1.862,1.862,0,0,1,77.73,4.451" transform="translate(0 0)" fill="#fff"/>
    </g>
  </g>
</svg>
