<svg id="icon-materials" xmlns="http://www.w3.org/2000/svg" xmlns:xlink="http://www.w3.org/1999/xlink" width="109.996" height="110" viewBox="0 0 109.996 110">
  <defs>
    <clipPath id="clip-path">
      <rect id="Rectangle_58" data-name="Rectangle 58" width="109.996" height="110" fill="#fff"/>
    </clipPath>
  </defs>
  <g id="Group_41" data-name="Group 41" clip-path="url(#clip-path)">
    <path id="Path_252" data-name="Path 252" d="M108.778,40.765A6.18,6.18,0,0,0,110,37.06a6.251,6.251,0,0,0-6.243-6.243,6.182,6.182,0,0,0-3.705,1.218,6.239,6.239,0,0,0-5.836-.842,6.239,6.239,0,0,0-.842-5.836,6.172,6.172,0,0,0,1.218-3.705,6.25,6.25,0,0,0-6.243-6.242,6.18,6.18,0,0,0-3.705,1.218,6.239,6.239,0,0,0-5.836-.842,6.239,6.239,0,0,0-.842-5.836,6.18,6.18,0,0,0,1.218-3.705A6.25,6.25,0,0,0,72.936,0a6.18,6.18,0,0,0-3.705,1.217,6.247,6.247,0,0,0-7.41,0,6.247,6.247,0,0,0-7.41,0,6.247,6.247,0,0,0-7.41,0,6.249,6.249,0,0,0-7.411,0,6.247,6.247,0,0,0-7.41,0,6.247,6.247,0,0,0-7.41,0,6.247,6.247,0,0,0-7.41,0,6.247,6.247,0,0,0-7.41,0A6.18,6.18,0,0,0,6.243,0,6.25,6.25,0,0,0,0,6.243,6.174,6.174,0,0,0,1.218,9.948a6.245,6.245,0,0,0,0,7.411,6.244,6.244,0,0,0,0,7.41,6.245,6.245,0,0,0,0,7.411,6.244,6.244,0,0,0,0,7.41,6.244,6.244,0,0,0,0,7.41,6.245,6.245,0,0,0,0,7.411,6.244,6.244,0,0,0,0,7.41,6.245,6.245,0,0,0,0,7.411A6.174,6.174,0,0,0,0,72.939a6.25,6.25,0,0,0,6.243,6.243,6.18,6.18,0,0,0,3.705-1.218,6.234,6.234,0,0,0,5.836.841,6.239,6.239,0,0,0,.842,5.836,6.182,6.182,0,0,0-1.218,3.705,6.25,6.25,0,0,0,6.243,6.243,6.182,6.182,0,0,0,3.705-1.218,6.239,6.239,0,0,0,5.836.842,6.239,6.239,0,0,0,.842,5.836,6.174,6.174,0,0,0-1.218,3.705A6.25,6.25,0,0,0,37.06,110a6.178,6.178,0,0,0,3.705-1.218,6.244,6.244,0,0,0,7.41,0,6.244,6.244,0,0,0,7.41,0,6.244,6.244,0,0,0,7.41,0,6.244,6.244,0,0,0,7.41,0,6.245,6.245,0,0,0,7.411,0,6.242,6.242,0,0,0,7.409,0,6.244,6.244,0,0,0,7.41,0,6.244,6.244,0,0,0,7.41,0A6.182,6.182,0,0,0,103.753,110,6.251,6.251,0,0,0,110,103.757a6.18,6.18,0,0,0-1.218-3.705,6.244,6.244,0,0,0,0-7.41,6.245,6.245,0,0,0,0-7.411,6.245,6.245,0,0,0,0-7.411,6.244,6.244,0,0,0,0-7.41,6.244,6.244,0,0,0,0-7.41,6.245,6.245,0,0,0,0-7.411,6.244,6.244,0,0,0,0-7.41,6.245,6.245,0,0,0,0-7.411ZM11.237,74.744a1.611,1.611,0,0,0-2.58,0,3.016,3.016,0,1,1-4.22-4.22,1.611,1.611,0,0,0,0-2.579,3.009,3.009,0,0,1,0-4.832,1.611,1.611,0,0,0,0-2.579,3.008,3.008,0,0,1,0-4.831,1.611,1.611,0,0,0,0-2.579,3.009,3.009,0,0,1,0-4.832,1.611,1.611,0,0,0,0-2.579,3.009,3.009,0,0,1,0-4.832,1.611,1.611,0,0,0,0-2.579,3.008,3.008,0,0,1,0-4.831,1.612,1.612,0,0,0,0-2.58,3.009,3.009,0,0,1,0-4.832,1.611,1.611,0,0,0,0-2.579,3.008,3.008,0,0,1,0-4.831,1.611,1.611,0,0,0,0-2.579,3.009,3.009,0,0,1,0-4.832,1.612,1.612,0,0,0,0-2.58,3.016,3.016,0,1,1,4.22-4.22,1.612,1.612,0,0,0,2.58,0,3.008,3.008,0,0,1,4.831,0,1.612,1.612,0,0,0,2.58,0,3.008,3.008,0,0,1,4.831,0,1.612,1.612,0,0,0,2.58,0,3.008,3.008,0,0,1,4.831,0,1.612,1.612,0,0,0,2.58,0,3.008,3.008,0,0,1,4.831,0,1.612,1.612,0,0,0,2.58,0,3.008,3.008,0,0,1,4.831,0,1.611,1.611,0,0,0,2.579,0,3.008,3.008,0,0,1,4.831,0,1.611,1.611,0,0,0,2.579,0,3.009,3.009,0,0,1,4.832,0,1.612,1.612,0,0,0,2.58,0,3.008,3.008,0,0,1,4.831,0,1.612,1.612,0,0,0,2.58,0,2.994,2.994,0,0,1,2.415-1.215,3.016,3.016,0,0,1,1.8,5.436,1.611,1.611,0,0,0,0,2.58,3,3,0,0,1,.461,4.4,6.26,6.26,0,0,0-1.677-.232,6.18,6.18,0,0,0-3.705,1.218,6.244,6.244,0,0,0-7.41,0,6.244,6.244,0,0,0-7.41,0,6.244,6.244,0,0,0-7.41,0,6.244,6.244,0,0,0-7.41,0,6.244,6.244,0,0,0-7.41,0,6.244,6.244,0,0,0-7.41,0,6.18,6.18,0,0,0-3.705-1.218,6.25,6.25,0,0,0-6.243,6.243,6.182,6.182,0,0,0,1.217,3.705,6.247,6.247,0,0,0,0,7.41,6.249,6.249,0,0,0,0,7.411,6.247,6.247,0,0,0,0,7.41,6.249,6.249,0,0,0,0,7.411,6.247,6.247,0,0,0,0,7.41,6.247,6.247,0,0,0,0,7.41,6.182,6.182,0,0,0-1.217,3.706,6.271,6.271,0,0,0,.231,1.678,3,3,0,0,1-4.4-.461M26.646,90.152a1.611,1.611,0,0,0-2.58,0,3.016,3.016,0,1,1-4.219-4.219,1.612,1.612,0,0,0,0-2.58,3.008,3.008,0,0,1,0-4.831,1.612,1.612,0,0,0,0-2.58,3.009,3.009,0,0,1,0-4.832,1.611,1.611,0,0,0,0-2.579,3.008,3.008,0,0,1,0-4.831,1.611,1.611,0,0,0,0-2.579,3.008,3.008,0,0,1,0-4.831,1.612,1.612,0,0,0,0-2.58,3.008,3.008,0,0,1,0-4.831,1.612,1.612,0,0,0,0-2.579,3.008,3.008,0,0,1,0-4.831,1.612,1.612,0,0,0,0-2.579,3.009,3.009,0,0,1,0-4.832,1.612,1.612,0,0,0,0-2.58,3.008,3.008,0,0,1,0-4.831,1.612,1.612,0,0,0,0-2.58,2.992,2.992,0,0,1-1.215-2.414,3.016,3.016,0,0,1,5.435-1.8,1.612,1.612,0,0,0,2.58,0,3.008,3.008,0,0,1,4.831,0,1.612,1.612,0,0,0,2.579,0,3.009,3.009,0,0,1,4.832,0,1.611,1.611,0,0,0,2.579,0,3.009,3.009,0,0,1,4.832,0,1.612,1.612,0,0,0,2.579,0,3.008,3.008,0,0,1,4.831,0,1.612,1.612,0,0,0,2.58,0,3.008,3.008,0,0,1,4.831,0,1.611,1.611,0,0,0,2.579,0,3.008,3.008,0,0,1,4.831,0,1.611,1.611,0,0,0,2.579,0,3.008,3.008,0,0,1,4.831,0,1.611,1.611,0,0,0,2.579,0,3.008,3.008,0,0,1,4.831,0,1.612,1.612,0,0,0,2.579,0,3.016,3.016,0,1,1,4.219,4.22,1.611,1.611,0,0,0,0,2.58,3,3,0,0,1,.462,4.4,6.271,6.271,0,0,0-1.678-.231,6.182,6.182,0,0,0-3.705,1.217,6.247,6.247,0,0,0-7.41,0,6.247,6.247,0,0,0-7.41,0,6.247,6.247,0,0,0-7.41,0,6.247,6.247,0,0,0-7.41,0,6.247,6.247,0,0,0-7.41,0,6.247,6.247,0,0,0-7.41,0,6.182,6.182,0,0,0-3.705-1.217,6.25,6.25,0,0,0-6.243,6.243,6.18,6.18,0,0,0,1.218,3.705,6.245,6.245,0,0,0,0,7.411,6.244,6.244,0,0,0,0,7.41,6.245,6.245,0,0,0,0,7.411,6.244,6.244,0,0,0,0,7.41,6.244,6.244,0,0,0,0,7.41,6.245,6.245,0,0,0,0,7.411,6.182,6.182,0,0,0-1.218,3.705,6.272,6.272,0,0,0,.232,1.678,3,3,0,0,1-4.4-.461Zm7.394,13.6a3,3,0,0,1,1.215-2.415,1.612,1.612,0,0,0,0-2.58,3.009,3.009,0,0,1,0-4.832,1.611,1.611,0,0,0,0-2.579,3.009,3.009,0,0,1,0-4.832,1.611,1.611,0,0,0,0-2.579,3.009,3.009,0,0,1,0-4.832,1.611,1.611,0,0,0,0-2.579,3.009,3.009,0,0,1,0-4.832,1.612,1.612,0,0,0,0-2.58,3.008,3.008,0,0,1,0-4.831,1.612,1.612,0,0,0,0-2.58,3.009,3.009,0,0,1,0-4.832,1.611,1.611,0,0,0,0-2.579,3.008,3.008,0,0,1,0-4.831,1.612,1.612,0,0,0,0-2.58,3.009,3.009,0,0,1,0-4.832,1.611,1.611,0,0,0,0-2.579,3.014,3.014,0,1,1,3.859-4.617v71.1a2.98,2.98,0,0,1-2.054.819A3.024,3.024,0,0,1,34.04,103.757ZM49.76,105.9V88.3a1.611,1.611,0,1,0-3.223,0v17.646a2.992,2.992,0,0,1-4.2-.062V34.933a2.99,2.99,0,0,1,4.2-.062V80.566a1.611,1.611,0,1,0,3.223,0V34.92a2.989,2.989,0,0,1,4.2-.037v71.05a2.99,2.99,0,0,1-4.2-.038Zm7.424.013v-71a2.99,2.99,0,0,1,4.2-.012v71.025a2.99,2.99,0,0,1-4.2-.012m14.847.025V54.57a1.611,1.611,0,1,0-3.223,0v51.339a2.991,2.991,0,0,1-4.2.013V34.895a2.99,2.99,0,0,1,4.2.014V46.835a1.611,1.611,0,1,0,3.223,0V34.883a2.99,2.99,0,0,1,4.2.038V105.9a2.99,2.99,0,0,1-4.2.038m7.424.013V34.87a2.991,2.991,0,0,1,4.2.063v70.95a2.991,2.991,0,0,1-4.2.063Zm14.847.025V95.82a1.611,1.611,0,0,0-3.223,0v10.05a2.992,2.992,0,0,1-4.2.089v-71.1a2.992,2.992,0,0,1,4.2.089V88.085a1.611,1.611,0,0,0,3.223,0V34.845a2.993,2.993,0,0,1,4.2.114v70.9a2.994,2.994,0,0,1-4.2.113Zm11.255-63.916a3.009,3.009,0,0,1,0,4.832,1.611,1.611,0,0,0,0,2.58,3.008,3.008,0,0,1,0,4.831,1.611,1.611,0,0,0,0,2.579,3.008,3.008,0,0,1,0,4.831,1.611,1.611,0,0,0,0,2.579,3.009,3.009,0,0,1,0,4.832,1.611,1.611,0,0,0,0,2.58,3.008,3.008,0,0,1,0,4.831,1.611,1.611,0,0,0,0,2.58,3.009,3.009,0,0,1,0,4.832,1.611,1.611,0,0,0,0,2.579,3.008,3.008,0,0,1,0,4.831,1.611,1.611,0,0,0,0,2.58,3.009,3.009,0,0,1,0,4.832,1.611,1.611,0,0,0,0,2.579,3.014,3.014,0,1,1-3.832,4.644V34.832a2.979,2.979,0,0,1,2.027-.793,3.016,3.016,0,0,1,1.8,5.436,1.611,1.611,0,0,0,0,2.579Z" fill="#fff"/>
    <path id="Path_253" data-name="Path 253" d="M92.9,25.9a1.611,1.611,0,1,1-1.611,1.611A1.611,1.611,0,0,1,92.9,25.9" transform="translate(-7.607 -2.158)" fill="#fff"/>
    <path id="Path_254" data-name="Path 254" d="M83.523,25.9a1.611,1.611,0,1,1-1.611,1.611A1.611,1.611,0,0,1,83.523,25.9" transform="translate(-6.826 -2.158)" fill="#fff"/>
    <path id="Path_255" data-name="Path 255" d="M74.148,25.9a1.611,1.611,0,1,1-1.611,1.611A1.611,1.611,0,0,1,74.148,25.9" transform="translate(-6.045 -2.158)" fill="#fff"/>
    <path id="Path_256" data-name="Path 256" d="M64.773,25.9a1.611,1.611,0,1,1-1.611,1.611A1.611,1.611,0,0,1,64.773,25.9" transform="translate(-5.263 -2.158)" fill="#fff"/>
    <path id="Path_257" data-name="Path 257" d="M55.4,25.9a1.611,1.611,0,1,1-1.611,1.611A1.611,1.611,0,0,1,55.4,25.9" transform="translate(-4.482 -2.158)" fill="#fff"/>
    <path id="Path_258" data-name="Path 258" d="M46.023,25.9a1.611,1.611,0,1,1-1.611,1.611A1.611,1.611,0,0,1,46.023,25.9" transform="translate(-3.701 -2.158)" fill="#fff"/>
    <path id="Path_259" data-name="Path 259" d="M36.648,25.9a1.611,1.611,0,1,1-1.611,1.611A1.611,1.611,0,0,1,36.648,25.9" transform="translate(-2.92 -2.158)" fill="#fff"/>
    <path id="Path_260" data-name="Path 260" d="M27.274,25.9a1.611,1.611,0,1,1-1.611,1.611A1.611,1.611,0,0,1,27.274,25.9" transform="translate(-2.138 -2.158)" fill="#fff"/>
    <path id="Path_261" data-name="Path 261" d="M27.274,34.805a1.611,1.611,0,1,1-1.611,1.611,1.611,1.611,0,0,1,1.611-1.611" transform="translate(-2.138 -2.9)" fill="#fff"/>
    <path id="Path_262" data-name="Path 262" d="M27.274,43.711a1.612,1.612,0,1,1-1.611,1.612,1.611,1.611,0,0,1,1.611-1.612" transform="translate(-2.138 -3.643)" fill="#fff"/>
    <path id="Path_263" data-name="Path 263" d="M27.274,52.617a1.611,1.611,0,1,1-1.611,1.611,1.611,1.611,0,0,1,1.611-1.611" transform="translate(-2.138 -4.385)" fill="#fff"/>
    <path id="Path_264" data-name="Path 264" d="M27.274,61.523a1.612,1.612,0,1,1-1.611,1.611,1.611,1.611,0,0,1,1.611-1.611" transform="translate(-2.138 -5.127)" fill="#fff"/>
    <path id="Path_265" data-name="Path 265" d="M27.274,70.43a1.611,1.611,0,1,1-1.611,1.612,1.611,1.611,0,0,1,1.611-1.612" transform="translate(-2.138 -5.869)" fill="#fff"/>
    <path id="Path_266" data-name="Path 266" d="M27.274,79.336a1.611,1.611,0,1,1-1.611,1.611,1.611,1.611,0,0,1,1.611-1.611" transform="translate(-2.138 -6.611)" fill="#fff"/>
    <path id="Path_267" data-name="Path 267" d="M27.274,88.242a1.612,1.612,0,1,1-1.611,1.612,1.611,1.611,0,0,1,1.611-1.612" transform="translate(-2.138 -7.353)" fill="#fff"/>
  </g>
</svg>
