<svg xmlns="http://www.w3.org/2000/svg" xmlns:xlink="http://www.w3.org/1999/xlink" width="110" height="110" viewBox="0 0 110 110">
  <defs>
    <clipPath id="clip-path">
      <rect id="Rectangle_59" data-name="Rectangle 59" width="110" height="110" fill="#607684"/>
    </clipPath>
  </defs>
  <g id="icon-installation" transform="translate(-5)">
    <g id="Group_43" data-name="Group 43" transform="translate(5)" clip-path="url(#clip-path)">
      <path id="Path_268" data-name="Path 268" d="M106.333,0H3.667A3.672,3.672,0,0,0,0,3.667V11a3.672,3.672,0,0,0,3.667,3.667H4.791L1.929,23.253a1.832,1.832,0,0,0,1.738,2.414H4.791L1.929,34.253a1.832,1.832,0,0,0,1.738,2.414H4.791L1.929,45.253a1.832,1.832,0,0,0,1.738,2.414H4.791L1.929,56.253a1.832,1.832,0,0,0,1.738,2.414H4.791L1.929,67.253a1.832,1.832,0,0,0,1.738,2.414h5.5v38.5A1.832,1.832,0,0,0,11,110H99a1.832,1.832,0,0,0,1.833-1.831v-38.5h5.5a1.831,1.831,0,0,0,1.738-2.414l-2.862-8.586h1.124a1.831,1.831,0,0,0,1.738-2.414l-2.862-8.586h1.124a1.831,1.831,0,0,0,1.738-2.414l-2.862-8.586h1.124a1.831,1.831,0,0,0,1.738-2.414l-2.862-8.586h1.124a1.831,1.831,0,0,0,1.738-2.414l-2.862-8.586h1.124A3.672,3.672,0,0,0,110,11V3.667A3.672,3.672,0,0,0,106.333,0M14.667,14.667V22H6.21l2.444-7.333Zm3.667,44H91.667V66H18.333Zm5.5,36.667V69.667H75.167V81a5.5,5.5,0,1,0,3.667,0V69.667h7.333V95.333Zm55-9.167A1.833,1.833,0,1,1,77,84.333a1.833,1.833,0,0,1,1.833,1.833m-60.5-38.5H91.667V55H18.333Zm0-11H91.667V44H18.333Zm0-11H91.667V33H18.333Zm0-11H91.667V22H18.333Zm-3.667,11V33H6.21l2.444-7.333Zm0,11V44H6.21l2.444-7.333Zm0,11V55H6.21l2.444-7.333Zm-6.012,11h6.012V66H6.21ZM20.167,95.333H12.833V69.667h7.333ZM12.833,99H97.167v7.333H12.833Zm84.333-3.667H89.833V69.667h7.333ZM103.79,66H95.333V58.667h6.012Zm0-11H95.333V47.667h6.012Zm0-11H95.333V36.667h6.012Zm0-11H95.333V25.667h6.012Zm0-11H95.333V14.667h6.012ZM3.667,11V3.667H106.333l0,7.333Z" fill="#607684"/>
    </g>
  </g>
</svg>
