<svg xmlns="http://www.w3.org/2000/svg" xmlns:xlink="http://www.w3.org/1999/xlink" width="160" height="160" viewBox="0 0 160 160">
  <defs>
    <clipPath id="clip-path">
      <rect id="Rectangle_58" data-name="Rectangle 58" width="79.997" height="80" fill="#fff"/>
    </clipPath>
  </defs>
  <g id="icon-materials2" transform="translate(40 40)">
    <circle id="Ellipse_9" data-name="Ellipse 9" cx="80" cy="80" r="80" transform="translate(-40 -40)" fill="#5ab1ed"/>
    <g id="Group_41" data-name="Group 41" clip-path="url(#clip-path)">
      <path id="Path_252" data-name="Path 252" d="M79.111,29.647A4.5,4.5,0,0,0,80,26.953a4.546,4.546,0,0,0-4.541-4.541,4.5,4.5,0,0,0-2.695.886,4.538,4.538,0,0,0-4.245-.613,4.538,4.538,0,0,0-.613-4.245,4.489,4.489,0,0,0,.886-2.695,4.545,4.545,0,0,0-4.54-4.54,4.5,4.5,0,0,0-2.695.886,4.538,4.538,0,0,0-4.245-.613A4.537,4.537,0,0,0,56.7,7.235a4.5,4.5,0,0,0,.886-2.695A4.545,4.545,0,0,0,53.045,0,4.494,4.494,0,0,0,50.35.885a4.544,4.544,0,0,0-5.389,0,4.544,4.544,0,0,0-5.389,0,4.544,4.544,0,0,0-5.389,0,4.545,4.545,0,0,0-5.39,0,4.544,4.544,0,0,0-5.389,0,4.544,4.544,0,0,0-5.389,0,4.544,4.544,0,0,0-5.389,0,4.544,4.544,0,0,0-5.389,0A4.494,4.494,0,0,0,4.54,0,4.545,4.545,0,0,0,0,4.54,4.49,4.49,0,0,0,.886,7.235a4.542,4.542,0,0,0,0,5.39,4.541,4.541,0,0,0,0,5.389,4.542,4.542,0,0,0,0,5.39,4.541,4.541,0,0,0,0,5.389,4.541,4.541,0,0,0,0,5.389,4.542,4.542,0,0,0,0,5.39,4.541,4.541,0,0,0,0,5.389,4.542,4.542,0,0,0,0,5.39A4.49,4.49,0,0,0,0,53.047a4.546,4.546,0,0,0,4.54,4.541A4.5,4.5,0,0,0,7.235,56.7a4.534,4.534,0,0,0,4.245.612,4.538,4.538,0,0,0,.613,4.245,4.5,4.5,0,0,0-.886,2.695,4.545,4.545,0,0,0,4.541,4.541,4.5,4.5,0,0,0,2.695-.886,4.538,4.538,0,0,0,4.245.613,4.538,4.538,0,0,0,.613,4.245,4.49,4.49,0,0,0-.886,2.695A4.546,4.546,0,0,0,26.953,80a4.493,4.493,0,0,0,2.695-.886,4.541,4.541,0,0,0,5.389,0,4.541,4.541,0,0,0,5.389,0,4.541,4.541,0,0,0,5.389,0,4.541,4.541,0,0,0,5.389,0,4.542,4.542,0,0,0,5.39,0,4.54,4.54,0,0,0,5.389,0,4.541,4.541,0,0,0,5.389,0,4.541,4.541,0,0,0,5.389,0A4.5,4.5,0,0,0,75.457,80,4.546,4.546,0,0,0,80,75.459a4.5,4.5,0,0,0-.886-2.695,4.541,4.541,0,0,0,0-5.389,4.542,4.542,0,0,0,0-5.39,4.542,4.542,0,0,0,0-5.39,4.541,4.541,0,0,0,0-5.389,4.541,4.541,0,0,0,0-5.389,4.542,4.542,0,0,0,0-5.39,4.541,4.541,0,0,0,0-5.389,4.542,4.542,0,0,0,0-5.39ZM8.173,54.359a1.172,1.172,0,0,0-1.876,0A2.194,2.194,0,1,1,3.227,51.29a1.172,1.172,0,0,0,0-1.876,2.188,2.188,0,0,1,0-3.514,1.172,1.172,0,0,0,0-1.876,2.187,2.187,0,0,1,0-3.513,1.172,1.172,0,0,0,0-1.876,2.188,2.188,0,0,1,0-3.514,1.171,1.171,0,0,0,0-1.875,2.188,2.188,0,0,1,0-3.514,1.172,1.172,0,0,0,0-1.876,2.187,2.187,0,0,1,0-3.513,1.172,1.172,0,0,0,0-1.876,2.188,2.188,0,0,1,0-3.514,1.172,1.172,0,0,0,0-1.876,2.187,2.187,0,0,1,0-3.513,1.172,1.172,0,0,0,0-1.876,2.188,2.188,0,0,1,0-3.514,1.172,1.172,0,0,0,0-1.876A2.194,2.194,0,1,1,6.3,3.227a1.172,1.172,0,0,0,1.876,0,2.187,2.187,0,0,1,3.513,0,1.172,1.172,0,0,0,1.876,0,2.187,2.187,0,0,1,3.513,0,1.172,1.172,0,0,0,1.876,0,2.187,2.187,0,0,1,3.513,0,1.172,1.172,0,0,0,1.876,0,2.187,2.187,0,0,1,3.513,0,1.172,1.172,0,0,0,1.876,0,2.187,2.187,0,0,1,3.513,0,1.172,1.172,0,0,0,1.876,0,2.187,2.187,0,0,1,3.513,0,1.172,1.172,0,0,0,1.876,0,2.188,2.188,0,0,1,3.514,0,1.172,1.172,0,0,0,1.876,0,2.187,2.187,0,0,1,3.513,0,1.172,1.172,0,0,0,1.876,0,2.177,2.177,0,0,1,1.757-.884A2.193,2.193,0,0,1,54.357,6.3a1.172,1.172,0,0,0,0,1.876,2.182,2.182,0,0,1,.335,3.2,4.553,4.553,0,0,0-1.22-.169,4.5,4.5,0,0,0-2.695.886,4.541,4.541,0,0,0-5.389,0,4.541,4.541,0,0,0-5.389,0,4.541,4.541,0,0,0-5.389,0,4.541,4.541,0,0,0-5.389,0,4.541,4.541,0,0,0-5.389,0,4.541,4.541,0,0,0-5.389,0,4.5,4.5,0,0,0-2.695-.886,4.545,4.545,0,0,0-4.54,4.541,4.5,4.5,0,0,0,.885,2.695,4.544,4.544,0,0,0,0,5.389,4.545,4.545,0,0,0,0,5.39,4.544,4.544,0,0,0,0,5.389,4.545,4.545,0,0,0,0,5.39,4.544,4.544,0,0,0,0,5.389,4.544,4.544,0,0,0,0,5.389,4.5,4.5,0,0,0-.885,2.7,4.561,4.561,0,0,0,.168,1.221,2.183,2.183,0,0,1-3.2-.335M19.379,65.565a1.172,1.172,0,0,0-1.876,0A2.193,2.193,0,1,1,14.434,62.5a1.173,1.173,0,0,0,0-1.877,2.187,2.187,0,0,1,0-3.513,1.172,1.172,0,0,0,0-1.876,2.188,2.188,0,0,1,0-3.514,1.172,1.172,0,0,0,0-1.876,2.187,2.187,0,0,1,0-3.513,1.172,1.172,0,0,0,0-1.876,2.187,2.187,0,0,1,0-3.513,1.173,1.173,0,0,0,0-1.877,2.187,2.187,0,0,1,0-3.513,1.172,1.172,0,0,0,0-1.876,2.187,2.187,0,0,1,0-3.513,1.172,1.172,0,0,0,0-1.876,2.188,2.188,0,0,1,0-3.514,1.172,1.172,0,0,0,0-1.876,2.187,2.187,0,0,1,0-3.513,1.173,1.173,0,0,0,0-1.877,2.176,2.176,0,0,1-.884-1.756A2.193,2.193,0,0,1,17.5,14.434a1.172,1.172,0,0,0,1.876,0,2.187,2.187,0,0,1,3.513,0,1.172,1.172,0,0,0,1.876,0,2.188,2.188,0,0,1,3.514,0,1.171,1.171,0,0,0,1.875,0,2.188,2.188,0,0,1,3.514,0,1.172,1.172,0,0,0,1.876,0,2.187,2.187,0,0,1,3.513,0,1.172,1.172,0,0,0,1.876,0,2.187,2.187,0,0,1,3.513,0,1.172,1.172,0,0,0,1.876,0,2.187,2.187,0,0,1,3.513,0,1.172,1.172,0,0,0,1.876,0,2.187,2.187,0,0,1,3.513,0,1.172,1.172,0,0,0,1.876,0,2.187,2.187,0,0,1,3.513,0,1.172,1.172,0,0,0,1.876,0A2.193,2.193,0,1,1,65.563,17.5a1.172,1.172,0,0,0,0,1.876,2.182,2.182,0,0,1,.336,3.2,4.561,4.561,0,0,0-1.221-.168,4.5,4.5,0,0,0-2.695.885,4.544,4.544,0,0,0-5.389,0,4.544,4.544,0,0,0-5.389,0,4.544,4.544,0,0,0-5.389,0,4.544,4.544,0,0,0-5.389,0,4.544,4.544,0,0,0-5.389,0,4.544,4.544,0,0,0-5.389,0,4.5,4.5,0,0,0-2.695-.885,4.546,4.546,0,0,0-4.541,4.54,4.5,4.5,0,0,0,.886,2.695,4.542,4.542,0,0,0,0,5.39,4.541,4.541,0,0,0,0,5.389,4.542,4.542,0,0,0,0,5.39,4.541,4.541,0,0,0,0,5.389,4.541,4.541,0,0,0,0,5.389,4.542,4.542,0,0,0,0,5.39,4.5,4.5,0,0,0-.886,2.695,4.561,4.561,0,0,0,.169,1.221,2.182,2.182,0,0,1-3.2-.335Zm5.377,9.894A2.18,2.18,0,0,1,25.64,73.7a1.172,1.172,0,0,0,0-1.876,2.188,2.188,0,0,1,0-3.514,1.171,1.171,0,0,0,0-1.875,2.188,2.188,0,0,1,0-3.514,1.172,1.172,0,0,0,0-1.876,2.188,2.188,0,0,1,0-3.514,1.171,1.171,0,0,0,0-1.875,2.188,2.188,0,0,1,0-3.514,1.172,1.172,0,0,0,0-1.876,2.187,2.187,0,0,1,0-3.513,1.172,1.172,0,0,0,0-1.876,2.188,2.188,0,0,1,0-3.514,1.172,1.172,0,0,0,0-1.876,2.187,2.187,0,0,1,0-3.513,1.172,1.172,0,0,0,0-1.876,2.188,2.188,0,0,1,0-3.514,1.172,1.172,0,0,0,0-1.876,2.192,2.192,0,1,1,2.807-3.358V77.061a2.167,2.167,0,0,1-1.494.6A2.2,2.2,0,0,1,24.756,75.459Zm11.433,1.556v-12.8a1.172,1.172,0,0,0-2.344,0V77.052a2.176,2.176,0,0,1-3.055-.045v-51.6a2.175,2.175,0,0,1,3.055-.045V58.593a1.172,1.172,0,0,0,2.344,0V25.4a2.174,2.174,0,0,1,3.055-.027V77.043a2.175,2.175,0,0,1-3.055-.027Zm5.4.009V25.387a2.175,2.175,0,0,1,3.055-.009V77.033a2.175,2.175,0,0,1-3.055-.009m10.8.018V39.687a1.172,1.172,0,1,0-2.344,0V77.025a2.175,2.175,0,0,1-3.055.009V25.378a2.175,2.175,0,0,1,3.055.01v8.674a1.172,1.172,0,1,0,2.344,0V25.369a2.175,2.175,0,0,1,3.055.027V77.015a2.175,2.175,0,0,1-3.055.027m5.4.009V25.36a2.175,2.175,0,0,1,3.055.046v51.6a2.175,2.175,0,0,1-3.055.046Zm10.8.018V69.687a1.172,1.172,0,0,0-2.344,0V77a2.176,2.176,0,0,1-3.055.065V25.351a2.176,2.176,0,0,1,3.055.065V64.062a1.172,1.172,0,1,0,2.344,0V25.342a2.176,2.176,0,0,1,3.055.083V76.988a2.177,2.177,0,0,1-3.055.082Zm8.185-46.485a2.188,2.188,0,0,1,0,3.514,1.172,1.172,0,0,0,0,1.876,2.187,2.187,0,0,1,0,3.513,1.172,1.172,0,0,0,0,1.876,2.187,2.187,0,0,1,0,3.513,1.172,1.172,0,0,0,0,1.876,2.188,2.188,0,0,1,0,3.514,1.172,1.172,0,0,0,0,1.876,2.187,2.187,0,0,1,0,3.513,1.172,1.172,0,0,0,0,1.876,2.188,2.188,0,0,1,0,3.514,1.172,1.172,0,0,0,0,1.876,2.187,2.187,0,0,1,0,3.513,1.172,1.172,0,0,0,0,1.876,2.188,2.188,0,0,1,0,3.514,1.171,1.171,0,0,0,0,1.875,2.192,2.192,0,1,1-2.787,3.377V25.333a2.167,2.167,0,0,1,1.474-.577,2.194,2.194,0,0,1,1.313,3.953,1.172,1.172,0,0,0,0,1.876Z" transform="translate(0)" fill="#fff"/>
      <path id="Path_253" data-name="Path 253" d="M92.459,25.9a1.172,1.172,0,1,1-1.172,1.172A1.172,1.172,0,0,1,92.459,25.9" transform="translate(-30.429 -8.633)" fill="#fff"/>
      <path id="Path_254" data-name="Path 254" d="M83.084,25.9a1.172,1.172,0,1,1-1.172,1.172A1.172,1.172,0,0,1,83.084,25.9" transform="translate(-27.304 -8.633)" fill="#fff"/>
      <path id="Path_255" data-name="Path 255" d="M73.709,25.9a1.172,1.172,0,1,1-1.172,1.172A1.172,1.172,0,0,1,73.709,25.9" transform="translate(-24.179 -8.633)" fill="#fff"/>
      <path id="Path_256" data-name="Path 256" d="M64.334,25.9a1.172,1.172,0,1,1-1.172,1.172A1.172,1.172,0,0,1,64.334,25.9" transform="translate(-21.054 -8.633)" fill="#fff"/>
      <path id="Path_257" data-name="Path 257" d="M54.959,25.9a1.172,1.172,0,1,1-1.172,1.172A1.172,1.172,0,0,1,54.959,25.9" transform="translate(-17.929 -8.633)" fill="#fff"/>
      <path id="Path_258" data-name="Path 258" d="M45.584,25.9a1.172,1.172,0,1,1-1.172,1.172A1.172,1.172,0,0,1,45.584,25.9" transform="translate(-14.804 -8.633)" fill="#fff"/>
      <path id="Path_259" data-name="Path 259" d="M36.209,25.9a1.172,1.172,0,1,1-1.172,1.172A1.172,1.172,0,0,1,36.209,25.9" transform="translate(-11.679 -8.633)" fill="#fff"/>
      <path id="Path_260" data-name="Path 260" d="M26.834,25.9a1.172,1.172,0,1,1-1.172,1.172A1.172,1.172,0,0,1,26.834,25.9" transform="translate(-8.554 -8.633)" fill="#fff"/>
      <path id="Path_261" data-name="Path 261" d="M26.834,34.805a1.172,1.172,0,1,1-1.172,1.172,1.172,1.172,0,0,1,1.172-1.172" transform="translate(-8.554 -11.602)" fill="#fff"/>
      <path id="Path_262" data-name="Path 262" d="M26.834,43.711a1.172,1.172,0,1,1-1.172,1.172,1.172,1.172,0,0,1,1.172-1.172" transform="translate(-8.554 -14.57)" fill="#fff"/>
      <path id="Path_263" data-name="Path 263" d="M26.834,52.617a1.172,1.172,0,1,1-1.172,1.172,1.172,1.172,0,0,1,1.172-1.172" transform="translate(-8.554 -17.539)" fill="#fff"/>
      <path id="Path_264" data-name="Path 264" d="M26.834,61.523a1.172,1.172,0,1,1-1.172,1.172,1.172,1.172,0,0,1,1.172-1.172" transform="translate(-8.554 -20.508)" fill="#fff"/>
      <path id="Path_265" data-name="Path 265" d="M26.834,70.43A1.172,1.172,0,1,1,25.662,71.6a1.172,1.172,0,0,1,1.172-1.172" transform="translate(-8.554 -23.477)" fill="#fff"/>
      <path id="Path_266" data-name="Path 266" d="M26.834,79.336a1.172,1.172,0,1,1-1.172,1.172,1.172,1.172,0,0,1,1.172-1.172" transform="translate(-8.554 -26.445)" fill="#fff"/>
      <path id="Path_267" data-name="Path 267" d="M26.834,88.242a1.172,1.172,0,1,1-1.172,1.172,1.172,1.172,0,0,1,1.172-1.172" transform="translate(-8.554 -29.414)" fill="#fff"/>
    </g>
  </g>
</svg>
