<svg xmlns="http://www.w3.org/2000/svg" width="34.869" height="35" viewBox="0 0 34.869 35">
  <g id="icon_phone" transform="translate(-84 -30.444)">
    <path id="call" d="M36.591,28.955Q34.3,26.661,32.006,24.37a2.653,2.653,0,0,0-4.079,0Q26.5,25.8,25.062,27.236a.59.59,0,0,1-.765.127c-.576-.382-1.275-.637-1.85-1.02a28.828,28.828,0,0,1-7.134-6.5,17.246,17.246,0,0,1-2.549-4.14.59.59,0,0,1,.127-.765c1.02-.892,1.912-1.846,2.866-2.677a2.7,2.7,0,0,0,0-4.2c-.826-.831-1.529-1.529-2.29-2.294-.831-.826-1.6-1.591-2.36-2.356a2.736,2.736,0,0,0-4.075,0Q5.6,4.84,4.163,6.275A5.1,5.1,0,0,0,2.7,9.462a13.606,13.606,0,0,0,1.02,5.732A34,34,0,0,0,9.9,25.513a37.756,37.756,0,0,0,12.676,9.942,19.4,19.4,0,0,0,6.944,2.039,5.315,5.315,0,0,0,4.461-1.723c.826-.892,1.784-1.719,2.611-2.611A2.791,2.791,0,0,0,36.591,28.955Z" transform="translate(81.323 27.944)" fill="#5ab1ed"/>
  </g>
</svg>
