<svg xmlns="http://www.w3.org/2000/svg" width="24.907" height="25" viewBox="0 0 24.907 25">
  <path id="icon-phone" d="M26.9,21.4q-1.639-1.639-3.275-3.275a1.9,1.9,0,0,0-2.913,0q-1.022,1.022-2.047,2.047a.421.421,0,0,1-.546.091c-.411-.273-.91-.455-1.322-.728a20.591,20.591,0,0,1-5.1-4.643,12.319,12.319,0,0,1-1.821-2.957.421.421,0,0,1,.091-.546c.728-.637,1.366-1.319,2.047-1.912a1.927,1.927,0,0,0,0-3c-.59-.593-1.092-1.092-1.636-1.639C9.791,4.242,9.245,3.7,8.7,3.15a1.954,1.954,0,0,0-2.91,0Q4.762,4.172,3.739,5.2A3.643,3.643,0,0,0,2.693,7.473a9.719,9.719,0,0,0,.728,4.094,24.284,24.284,0,0,0,4.414,7.371,26.969,26.969,0,0,0,9.054,7.1A13.854,13.854,0,0,0,21.85,27.5a3.8,3.8,0,0,0,3.186-1.231c.59-.637,1.275-1.228,1.865-1.865A1.994,1.994,0,0,0,26.9,21.4Z" transform="translate(-2.677 -2.5)" fill="#fff"/>
</svg>
