<svg id="icon-shopping-bag" xmlns="http://www.w3.org/2000/svg" width="24.985" height="28" viewBox="0 0 24.985 28">
  <path id="Path_249" data-name="Path 249" d="M25.859,45H41.126a4.864,4.864,0,0,0,4.859-4.859V25.615a.864.864,0,0,0-.862-.862H39.954V23.462a6.462,6.462,0,1,0-12.923,0v1.292H21.862a.864.864,0,0,0-.862.862V40.141A4.864,4.864,0,0,0,25.859,45Zm2.895-21.538a4.738,4.738,0,0,1,9.477,0v1.292H28.754Zm-6.031,3.015h4.308v2.154a.862.862,0,1,0,1.723,0V26.477h9.477v2.154a.862.862,0,1,0,1.723,0V26.477h4.308V40.141a3.142,3.142,0,0,1-3.136,3.136H25.859a3.142,3.142,0,0,1-3.136-3.136Z" transform="translate(-21 -17)" fill="#252525"/>
</svg>
