<svg id="icon-user" xmlns="http://www.w3.org/2000/svg" width="23.838" height="23.2" viewBox="0 0 23.838 23.2">
  <path id="icon-user-2" data-name="icon-user" d="M23.377,48.7h22.1a.877.877,0,0,0,.62-.26.857.857,0,0,0,.247-.624,12,12,0,0,0-8.551-11.2,6.069,6.069,0,1,0-6.735,0,12,12,0,0,0-8.551,11.2.866.866,0,0,0,.867.885Zm6.717-17.129a4.336,4.336,0,1,1,4.336,4.336A4.344,4.344,0,0,1,30.094,31.571Zm4.336,6.288a10.248,10.248,0,0,1,10.13,9.107H24.3A10.248,10.248,0,0,1,34.431,37.859Z" transform="translate(-22.51 -25.5)" fill="#5ab1ed"/>
</svg>
