<svg xmlns="http://www.w3.org/2000/svg" xmlns:xlink="http://www.w3.org/1999/xlink" width="80" height="80" viewBox="0 0 80 80">
  <defs>
    <clipPath id="clip-path">
      <rect id="Rectangle_30" data-name="Rectangle 30" width="39.988" height="40" fill="#fff"/>
    </clipPath>
  </defs>
  <g id="icon_WA" transform="translate(-1560 -5363)">
    <circle id="Ellipse_4" data-name="Ellipse 4" cx="40" cy="40" r="40" transform="translate(1560 5363)" fill="#25d366"/>
    <g id="Group_23" data-name="Group 23" transform="translate(1580 5383)">
      <g id="Group_22" data-name="Group 22" clip-path="url(#clip-path)">
        <path id="Path_64" data-name="Path 64" d="M0,244.908a.352.352,0,0,1,0,.469Z" transform="translate(0 -225.767)" fill="#fff"/>
        <path id="Path_65" data-name="Path 65" d="M0,256.9a.353.353,0,0,1,0,.469Z" transform="translate(0 -236.825)" fill="#fff"/>
        <path id="Path_66" data-name="Path 66" d="M.068,238.6c.011.089.033.181-.068.239V238.6c.021-.033.043-.036.068,0" transform="translate(0 -219.928)" fill="#fff"/>
        <path id="Path_67" data-name="Path 67" d="M.063,267.6c0,.081.072.184-.063.229v-.234c.024-.036.045-.036.063.005" transform="translate(0 -246.652)" fill="#fff"/>
        <path id="Path_68" data-name="Path 68" d="M.068,237.063l-.068,0v-.156c.1.018.075.088.068.152" transform="translate(0 -218.395)" fill="#fff"/>
        <path id="Path_69" data-name="Path 69" d="M.063,266.061A.217.217,0,0,1,0,266.056V265.9c.082.03.08.093.063.161" transform="translate(0 -245.119)" fill="#fff"/>
        <path id="Path_70" data-name="Path 70" d="M39.988,18.75c-.051-.053-.04-.12-.04-.183a15.537,15.537,0,0,0-.962-5.113,20.021,20.021,0,0,0-5.9-8.673A19.75,19.75,0,0,0,23.405.189C22.791.081,22.169.095,21.556,0H21.4c-.05.054-.117.036-.179.04h-.291C20.851.03,20.765.067,20.7,0H19.291c-.053.057-.122.035-.186.04h-.2c-.08-.011-.168.028-.239-.04h-.312a.159.159,0,0,1-.105.04,15.161,15.161,0,0,0-4.8.938A19.923,19.923,0,0,0,4.626,7.007,19.421,19.421,0,0,0,.109,16.971C.05,17.38.088,17.8,0,18.2v.312c.053.048.037.112.04.172s.023.155-.04.219v.234a.6.6,0,0,1,0,.469v.469a.6.6,0,0,1,0,.469v.234c.053.048.037.112.04.172s.023.155-.04.219v.312a7.159,7.159,0,0,1,.1,1.038A19.766,19.766,0,0,0,2.151,28.88a.939.939,0,0,1,.1.672C1.545,32.675.867,35.8.18,38.93A2.545,2.545,0,0,0,.078,40H.234c.3-.078.614-.068.917-.138,3.145-.724,6.294-1.429,9.439-2.151a1.063,1.063,0,0,1,.756.073,18.259,18.259,0,0,0,2.832,1.107A19.376,19.376,0,0,0,22.4,39.6a19.725,19.725,0,0,0,12.609-6.615A19.617,19.617,0,0,0,39.8,23.063c.119-.68.075-1.37.191-2.047V20.7a.1.1,0,0,1,0-.156v-.391a1.337,1.337,0,0,1,0-.7v-.313a.1.1,0,0,1,0-.156ZM36.6,22.425a16.121,16.121,0,0,1-9.441,12.466,16.414,16.414,0,0,1-15.4-.506.808.808,0,0,0-.618-.113C8.9,34.8,6.642,35.3,4.388,35.811c-.06.014-.12.023-.222.043.264-1.212.517-2.388.775-3.562.243-1.1.485-2.207.741-3.308a.788.788,0,0,0-.126-.621,16.965,16.965,0,0,1-2.3-6.53,15.811,15.811,0,0,1,1.6-9.351A16.541,16.541,0,0,1,15.787,3.655a16.84,16.84,0,0,1,18.33,7.152A15.932,15.932,0,0,1,36.6,22.425" fill="#fff"/>
        <path id="Path_71" data-name="Path 71" d="M142.1,141.632c.831-.2,1.247.275,1.531,1,.423,1.074.87,2.138,1.317,3.2a1.007,1.007,0,0,1-.032.859,4.975,4.975,0,0,1-1.081,1.369c-.432.45-.445.6-.129,1.124a12.507,12.507,0,0,0,6.17,5.329c.5.2.687.175,1.023-.229q.686-.825,1.35-1.667c.33-.418.5-.5,1-.293,1.309.536,2.554,1.209,3.818,1.839a.544.544,0,0,1,.3.547,3.579,3.579,0,0,1-1.348,3.044,5.262,5.262,0,0,1-4.66.784,17.014,17.014,0,0,1-10.061-6.958,13.4,13.4,0,0,1-2.2-3.875,5.216,5.216,0,0,1,1.011-5.219,2.023,2.023,0,0,1,1.989-.854" transform="translate(-127.958 -130.521)" fill="#fff"/>
      </g>
    </g>
  </g>
</svg>
